<svg height="125" viewBox="0 0 115 125" width="115" xmlns="http://www.w3.org/2000/svg"><g transform="translate(-72.651764 -884.729723)"><path d="m179.34324 975.67647-49.17331 28.41123-49.191507-28.37971-.0182-56.79095 49.173306-28.41124 49.19151 28.37971z" fill="#fff"/><g fill-rule="evenodd"><path d="m145.02315 996.18426 35.12861-20.15972v-57.46124l-.6656-.034-1.84785 17.63703-.59828 38.06532-21.60728 13.21387-10.70366 8.23383z"/><path d="m115.32946 996.36379-35.12861-20.15972v-57.46124l.6656-.034 1.84785 17.63702.59828 38.06533 21.60728 13.21387 10.70366 8.23382z"/><path d="m165.00964 927.23258-35.12861 20.15972.10401 56.5251.6656.1381 1.74384-16.80497.59828-38.06532 21.60729-13.21388 10.70366-8.23382z"/><path d="m95.30945 910.04843 35.02314-20.34241 49.76289 28.73062-.30334.59343-16.19805-7.21823-33.26467-18.51453-22.24719 12.10551-12.48253 5.15273z"/><path d="m80.44816 918.4237 35.12861 20.15972-.66422.54881-10.68532-4.22798-16.49868-9.76799-7.57445-6.20764c-.00015-.21972-.0477-.46427.29406-.50492z"/></g><path d="m110.54463 993.10728 19.84881 11.07002 18.55497-10.90466" fill="none" stroke="#000"/><path d="m99.58769 908.25012-19.06448 10.5004" fill="none" stroke="#000"/></g></svg>